<?xml version="1.0" encoding="UTF-8" standalone="no"?>
<svg
   xmlns:dc="http://purl.org/dc/elements/1.1/"
   xmlns:cc="http://creativecommons.org/ns#"
   xmlns:rdf="http://www.w3.org/1999/02/22-rdf-syntax-ns#"
   xmlns:svg="http://www.w3.org/2000/svg"
   xmlns="http://www.w3.org/2000/svg"
   xmlns:sodipodi="http://sodipodi.sourceforge.net/DTD/sodipodi-0.dtd"
   xmlns:inkscape="http://www.inkscape.org/namespaces/inkscape"
   viewBox="0 0 512 512"
   version="1.1"
   id="svg885"
   sodipodi:docname="cornerdogs.svg"
   inkscape:version="0.92.5 (2060ec1f9f, 2020-04-08)">
  <metadata
     id="metadata891">
    <rdf:RDF>
      <cc:Work
         rdf:about="">
        <dc:format>image/svg+xml</dc:format>
        <dc:type
           rdf:resource="http://purl.org/dc/dcmitype/StillImage" />
        <dc:title></dc:title>
      </cc:Work>
    </rdf:RDF>
  </metadata>
  <defs
     id="defs889" />
  <sodipodi:namedview
     pagecolor="#ffffff"
     bordercolor="#666666"
     borderopacity="1"
     objecttolerance="10"
     gridtolerance="10"
     guidetolerance="10"
     inkscape:pageopacity="0"
     inkscape:pageshadow="2"
     inkscape:window-width="1366"
     inkscape:window-height="668"
     id="namedview887"
     showgrid="false"
     inkscape:zoom="0.41"
     inkscape:cx="374.97323"
     inkscape:cy="386.70371"
     inkscape:window-x="0"
     inkscape:window-y="27"
     inkscape:window-maximized="1"
     inkscape:current-layer="layer1" />
  <!-- Font Awesome Free 5.15.3 by @fontawesome - https://fontawesome.com License - https://fontawesome.com/license/free (Icons: CC BY 4.0, Fonts: SIL OFL 1.1, Code: MIT License) -->
  <g
     inkscape:groupmode="layer"
     id="layer1"
     inkscape:label="work">
    <path
       style="display:inline;fill:#ff0000;fill-opacity:1;stroke-width:0.72319788"
       d="M 173.65625,92.003906 C 147.84997,91.803037 122.33623,98.865419 101.875,113.63867 43.125145,156.01502 51.718626,225.10237 93.59375,261.72266 l 80.64063,70.40234 24.46679,-24.52734 -78.38867,-68.43555 c -28.515162,-24.90409 -34.297657,-72.03322 5.70312,-100.88672 30.39013,-21.89222 77.26488,-18.61261 106.64063,7.02734 L 260,169.20312 287.34375,145.30273 c 24.37346,-21.27236 73.6302,-20.69624 102.52539,-9.82421 l 24.41211,-24.47461 C 369.88896,89.673518 298.28292,90.281574 260,123.67969 236.37322,103.06763 204.80176,92.246335 173.65625,92.003906 Z m 240.625,19.000004 -24.41211,24.47461 c 1.39823,0.86718 2.77908,1.76398 4.11524,2.72851 39.92194,28.85352 33.98442,76.25146 5.70312,100.95508 L 262.65625,358.79492 c -1.8768,1.60618 -3.4357,1.60618 -5.3125,0 l -48.23242,-42.10742 -24.4668,24.52539 45.98047,40.14258 C 238.43813,388.1835 248.90555,392 260,392 c 11.17247,0 21.56185,-3.74812 29.375,-10.57617 L 426.40625,261.78906 c 41.79669,-36.61909 50.54623,-105.70681 -8.28125,-148.15039 -1.26124,-0.90876 -2.54522,-1.7843 -3.84375,-2.63476 z"
       id="path883"
       inkscape:connector-curvature="0"
       sodipodi:nodetypes="sccccccccccccscccccccccscccc" />
    <path
       id="path1454"
       d="M 0,469.68346 99.856249,369.57802 155.36233,351.04235 441.5433,64.147314 406.9592,59.075204 515,0.54077168 463.62455,101.1524 452.95393,72.235947 167.38975,358.51264 153.85116,410.17202 53.99488,510.27741 71.082438,446.21006 Z"
       style="display:inline;fill:#000000;fill-opacity:1;stroke-width:4.88933992"
       inkscape:connector-curvature="0" />
    <path
       sodipodi:nodetypes="sccccccccccccscccccccccscccc"
       inkscape:connector-curvature="0"
       id="path1457"
       d="M 173.65625,92.003906 C 147.84997,91.803037 122.33623,98.865419 101.875,113.63867 43.125145,156.01502 51.718626,225.10237 93.59375,261.72266 l 80.64063,70.40234 24.46679,-24.52734 -78.38867,-68.43555 c -28.515162,-24.90409 -34.297657,-72.03322 5.70312,-100.88672 30.39013,-21.89222 77.26488,-18.61261 106.64063,7.02734 L 260,169.20312 287.34375,145.30273 c 24.37346,-21.27236 73.6302,-20.69624 102.52539,-9.82421 l 24.41211,-24.47461 C 369.88896,89.673518 298.28292,90.281574 260,123.67969 236.37322,103.06763 204.80176,92.246335 173.65625,92.003906 Z m 240.625,19.000004 -24.41211,24.47461 c 1.39823,0.86718 2.77908,1.76398 4.11524,2.72851 39.92194,28.85352 33.98442,76.25146 5.70312,100.95508 L 262.65625,358.79492 c -1.8768,1.60618 -3.4357,1.60618 -5.3125,0 l -48.23242,-42.10742 -24.4668,24.52539 45.98047,40.14258 C 238.43813,388.1835 248.90555,392 260,392 c 11.17247,0 21.56185,-3.74812 29.375,-10.57617 L 426.40625,261.78906 c 41.79669,-36.61909 50.54623,-105.70681 -8.28125,-148.15039 -1.26124,-0.90876 -2.54522,-1.7843 -3.84375,-2.63476 z"
       style="display:inline;fill:#ff0000;fill-opacity:1;stroke-width:0.72319788" />
    <path
       sodipodi:nodetypes="sccccccccccccscccccccccscccc"
       inkscape:connector-curvature="0"
       id="path1459"
       d="M 173.65625,92.003906 C 147.84997,91.803037 122.33623,98.865419 101.875,113.63867 43.125145,156.01502 51.718626,225.10237 93.59375,261.72266 l 80.64063,70.40234 24.46679,-24.52734 -78.38867,-68.43555 c -28.515162,-24.90409 -34.297657,-72.03322 5.70312,-100.88672 30.39013,-21.89222 77.26488,-18.61261 106.64063,7.02734 L 260,169.20312 287.34375,145.30273 c 24.37346,-21.27236 73.6302,-20.69624 102.52539,-9.82421 l 24.41211,-24.47461 C 369.88896,89.673518 298.28292,90.281574 260,123.67969 236.37322,103.06763 204.80176,92.246335 173.65625,92.003906 Z m 240.625,19.000004 -24.41211,24.47461 c 1.39823,0.86718 2.77908,1.76398 4.11524,2.72851 39.92194,28.85352 33.98442,76.25146 5.70312,100.95508 L 262.65625,358.79492 c -1.8768,1.60618 -3.4357,1.60618 -5.3125,0 l -48.23242,-42.10742 -24.4668,24.52539 45.98047,40.14258 C 238.43813,388.1835 248.90555,392 260,392 c 11.17247,0 21.56185,-3.74812 29.375,-10.57617 L 426.40625,261.78906 c 41.79669,-36.61909 50.54623,-105.70681 -8.28125,-148.15039 -1.26124,-0.90876 -2.54522,-1.7843 -3.84375,-2.63476 z"
       style="display:inline;fill:#ff0000;fill-opacity:1;stroke-width:0.72319788" />
  </g>
</svg>
