<?xml version="1.0" encoding="UTF-8" standalone="no"?>
<svg
   xmlns:dc="http://purl.org/dc/elements/1.1/"
   xmlns:cc="http://creativecommons.org/ns#"
   xmlns:rdf="http://www.w3.org/1999/02/22-rdf-syntax-ns#"
   xmlns:svg="http://www.w3.org/2000/svg"
   xmlns="http://www.w3.org/2000/svg"
   xmlns:sodipodi="http://sodipodi.sourceforge.net/DTD/sodipodi-0.dtd"
   xmlns:inkscape="http://www.inkscape.org/namespaces/inkscape"
   viewBox="0 0 512 512"
   version="1.1"
   id="svg4"
   sodipodi:docname="wizard_hat.svg"
   inkscape:version="0.92.5 (2060ec1f9f, 2020-04-08)">
  <metadata
     id="metadata10">
    <rdf:RDF>
      <cc:Work
         rdf:about="">
        <dc:format>image/svg+xml</dc:format>
        <dc:type
           rdf:resource="http://purl.org/dc/dcmitype/StillImage" />
      </cc:Work>
    </rdf:RDF>
  </metadata>
  <defs
     id="defs8" />
  <sodipodi:namedview
     pagecolor="#ffffff"
     bordercolor="#666666"
     borderopacity="1"
     objecttolerance="10"
     gridtolerance="10"
     guidetolerance="10"
     inkscape:pageopacity="0"
     inkscape:pageshadow="2"
     inkscape:window-width="1366"
     inkscape:window-height="668"
     id="namedview6"
     showgrid="false"
     inkscape:zoom="1.6550496"
     inkscape:cx="318.52039"
     inkscape:cy="17.245511"
     inkscape:window-x="0"
     inkscape:window-y="27"
     inkscape:window-maximized="1"
     inkscape:current-layer="layer1" />
  <!-- Font Awesome Free 5.15.3 by @fontawesome - https://fontawesome.com License - https://fontawesome.com/license/free (Icons: CC BY 4.0, Fonts: SIL OFL 1.1, Code: MIT License) -->
  <g
     inkscape:groupmode="layer"
     id="layer1"
     inkscape:label="work"
     style="display:inline">
    <path
       style="fill:#222;fill-opacity:1;stroke:#ff0000;stroke-width:1.90574944;stroke-miterlimit:4;stroke-dasharray:none;stroke-opacity:0"
       d="m 395.76367,448.9043 c -13.81681,0.001 -38.85318,0.0343 -56.54297,0.0488 l -3.50781,8.57032 11.33984,17.32812 -20.65039,-1.53906 -12.97461,16.13867 -4.91796,-20.11523 -19.35938,-7.35156 17.61133,-10.89454 0.10351,-2.10937 c -18.54439,0.0188 -29.63062,0.02 -52.09961,0.0449 l -245.2792919,0.27149 -4.1015625,4.0996 -4.1015625,4.09961 -0.30273435,21.49219 C 0.63121109,503.7272 1.2545754,505.917 9.7460938,509.78121 c 3.8401482,1.74752 17.3905002,2.01112 165.6074262,1.9043 l -3.41993,-8.70508 -21.19921,-4.92578 16.80468,-13.83008 -1.86523,-21.68359 18.3457,11.70898 20.04688,-8.47461 -5.4668,21.06641 14.25391,16.44531 -21.72461,1.31055 -4.26758,7.07812 c 23.18052,-0.0187 40.11813,-0.0212 70.33594,-0.0527 240.66003,-0.25121 242.88003,-0.2713 246.53515,-2.42969 6.90144,-4.07536 7.74619,-7.28431 7.74219,-29.38672 -0.005,-21.9186 -0.70988,-24.50435 -7.88086,-28.88476 -2.63969,-1.61249 -4.46742,-2.02625 -107.83008,-2.01758 z m -366.292967,3.2832 12.269531,8.18164 13.697266,-5.4707 -3.990234,14.19726 9.433593,11.33594 -14.734375,0.59375 L 38.28125,493.5 33.162109,479.66992 18.867188,476.04297 30.441406,466.90234 Z m 408.085937,9.93945 14.54492,9.33985 15.93946,-6.6875 -4.38868,16.71875 11.28711,13.09179 -17.25586,0.99414 -8.96484,14.7793 -6.27734,-16.10547 -16.82618,-3.95703 13.37696,-10.94726 z m -57.25391,2.03516 5.41016,7.11133 8.8457,1.24218 -5.08984,7.3418 1.55273,8.79883 -8.55664,-2.57227 -7.88672,4.19336 -0.19726,-8.93164 -6.42774,-6.20508 8.4336,-2.94726 z m -272.91796,4.65039 0.49023,9.2832 6.88086,6.25 -8.67578,3.33399 -3.81836,8.47656 -5.851564,-7.22266 -9.242187,-1.00976 5.060547,-7.79883 -1.894532,-9.10156 8.980469,2.40234 z m 142.98046,18.1543 0.1543,3.78125 2.76953,2.57617 -3.54883,1.31445 -1.5957,3.42969 -2.3457,-2.96875 -3.75391,-0.45703 2.09766,-3.14649 -0.72656,-3.71289 3.64257,1.02149 z"
       id="path4751"
       inkscape:connector-curvature="0" />
    <path
       style="fill:#222;fill-opacity:1;stroke:#ff0000;stroke-width:1.90574944;stroke-miterlimit:4;stroke-dasharray:none;stroke-opacity:0"
       d="m 414.05273,2.484375 c -0.356,-0.356004 -51.20385,28.465521 -101.02929,56.986328 l 5.83984,14.070313 17.03906,3.61914 -13.23632,11.322266 1.82226,17.322268 -14.85742,-9.089846 -15.91211,7.087886 4.05273,-16.941402 -11.07421,-12.296875 c -35.28822,20.277305 -65.01298,37.528017 -68.15821,39.740237 -16.33567,11.48979 -31.25002,28.75718 -40.08398,46.4082 -1.60879,3.21449 -25.7127,57.04252 -51.09766,113.92969 l 36.05469,-33.43946 5.91406,62.77344 55.06445,30.7168 -57.875,25.02148 -10.90429,55.29883 c 90.59685,0.0261 177.95301,0.0645 291.38086,-0.0195 l -44.0586,-102.82422 c -34.31165,-80.07604 -44.4349,-104.73559 -45.76171,-111.4707 -3.18053,-16.14383 -3.20631,-16.04188 28.59179,-111.486329 15.80878,-47.45124 28.53836,-86.479222 28.28906,-86.728516 z m -56.00781,33.830078 7.61524,4.482422 8.01172,-3.732422 -1.91016,8.628906 6.02539,6.464844 -8.79688,0.849609 -4.28515,7.728516 -3.52735,-8.103516 -8.67578,-1.6875 6.61719,-5.859374 z m -48.01367,24.871094 c -7.41097,4.243918 -14.78764,8.470043 -21.93164,12.574219 l 15.37891,-1.220704 z m -35.97656,101.738283 20.14453,24.68945 31.75781,-2.59961 -17.25391,26.78906 12.28516,29.40039 -30.81055,-8.13281 -24.16601,20.76953 -1.78516,-31.81445 -27.2207,-16.56445 29.70508,-11.5293 z m -90.97657,16.50586 6.98438,5.13086 8.18555,-2.84571 -2.72071,8.22852 5.23633,6.90625 -8.66601,-0.0449 -4.95118,7.11328 -2.63476,-8.25586 -8.29492,-2.50977 7.03711,-5.05859 z m 164.31836,48.20703 7.01954,8.31055 10.82617,-1.07032 -5.73633,9.24414 4.36328,9.9668 -10.56445,-2.59961 -8.12891,7.23047 -0.79297,-10.84961 -9.38867,-5.49805 10.07422,-4.10742 z m -97.14453,42.20898 1.92383,7.92969 6.94922,4.28125 -6.94922,4.2793 -1.92383,7.93164 -6.21679,-5.28516 -8.13672,0.6211 3.10547,-7.54688 -3.10547,-7.54687 8.13672,0.62109 z m 94.83008,35.74024 1.76563,30.97265 26.51562,16.10547 -28.91211,11.25 -7.12305,30.19532 -19.63476,-24.01954 -30.91797,2.55664 16.77734,-26.0957 -11.98437,-28.61523 30.00195,7.89257 z m -232.44531,68.68164 -31.294923,3.75781 c -6.675642,15.05503 -12.201016,27.54877 -14.273438,32.33984 l -2.001953,4.62891 c 29.493707,0 55.916994,0.0119 83.468754,0.0195 z m 133.64844,0 9.48046,5.48828 10.59571,-2.77344 -2.28906,10.71094 5.91211,9.2207 -10.89454,1.13282 -6.94336,8.47265 -4.44336,-10.01172 -10.20312,-3.98437 8.14844,-7.32032 z m 137.73242,1.16601 6.8789,10.43555 12.4961,0.25 -7.79883,9.76563 3.625,11.96289 -11.69922,-4.40039 -10.25586,7.14453 0.56836,-12.48633 -9.96289,-7.54688 12.05078,-3.3164 z"
       id="path4749"
       inkscape:connector-curvature="0" />
    <path
       style="fill:#222;fill-opacity:1;stroke:#ff0000;stroke-width:1.05737019;stroke-miterlimit:4;stroke-dasharray:none;stroke-opacity:0"
       d="m 156.10834,414.31812 c 0,-1.24105 10.34671,-53.17218 10.72718,-53.8408 0.2479,-0.43563 13.18485,-6.2961 28.74877,-13.02328 15.56393,-6.72718 28.29337,-12.48839 28.28765,-12.8027 -0.007,-0.41141 -50.97466,-29.34534 -53.93892,-30.62098 -0.20586,-0.0886 -1.69101,-14.23165 -3.30033,-31.42902 -1.60932,-17.19737 -3.12403,-31.26794 -3.36603,-31.26794 -0.24199,0 -8.00128,7.03614 -17.24286,15.63586 -9.24158,8.59972 -16.8737,15.45653 -16.96026,15.23734 -0.18319,-0.46386 43.49045,-98.28123 48.79685,-109.29198 6.3032,-13.07912 14.11132,-23.95144 25.0541,-34.88627 11.08893,-11.08087 11.77122,-11.53047 58.54357,-38.577232 13.57812,-7.851734 24.87433,-14.275886 25.10268,-14.275886 0.37546,0 5.77307,5.824236 9.47654,10.22556 l 1.46518,1.741272 -2.05601,8.366607 c -1.1308,4.601629 -1.99226,8.436069 -1.91434,8.520969 0.0779,0.0849 3.7356,-1.46719 8.12817,-3.44909 l 7.98651,-3.603458 7.29576,4.527578 c 4.01267,2.49017 7.41268,4.41066 7.55557,4.26776 0.24877,-0.24876 -0.68411,-10.405616 -1.37278,-14.94632 -0.32483,-2.141797 -0.23244,-2.255056 6.36108,-7.797518 3.67989,-3.093285 6.55968,-5.755181 6.39953,-5.915328 -0.16014,-0.160146 -3.866,-1.047352 -8.23522,-1.971566 -4.36923,-0.92422 -8.16749,-1.906529 -8.44058,-2.182907 -0.27309,-0.276379 -1.70483,-3.390352 -3.18166,-6.919936 l -2.68514,-6.417424 32.40636,-18.481477 c 17.82349,-10.164813 38.2521,-21.754869 45.3969,-25.755681 12.98465,-7.2708983 12.99238,-7.2742027 17.02381,-7.2753602 l 4.03326,-0.00116 -2.63511,8.0058022 c -1.44931,4.403192 -12.01141,36.418849 -23.47134,71.145905 -31.7377,96.17487 -32.10877,97.55148 -29.71833,110.24885 2.08717,11.08644 8.417,26.45903 70.60252,171.46477 l 19.62799,45.76902 H 301.35887 c -79.88779,0 -145.25053,-0.19079 -145.25053,-0.42398 z m 226.62788,-7.1994 4.84344,-3.39389 5.80293,2.1941 c 3.1916,1.20676 5.86564,2.12224 5.9423,2.03442 0.0767,-0.0878 -0.65904,-2.82302 -1.63489,-6.0782 l -1.77429,-5.91853 3.65757,-4.58205 c 2.01166,-2.52013 3.65756,-4.81888 3.65756,-5.10834 0,-0.28945 -2.71717,-0.52628 -6.03817,-0.52628 h -6.03817 l -3.40819,-5.12135 c -1.8745,-2.81674 -3.62221,-4.98908 -3.88379,-4.82741 -0.26159,0.16167 -1.20911,2.53425 -2.10561,5.2724 -0.8965,2.73815 -1.93749,5.28362 -2.31332,5.65658 -0.37582,0.37297 -2.99442,1.28581 -5.81911,2.02854 -2.82469,0.74274 -5.35515,1.48277 -5.62324,1.64452 -0.26809,0.16176 1.70315,1.92828 4.38053,3.92561 l 4.86798,3.63152 v 6.28113 c 0,3.45462 0.14468,6.28113 0.32151,6.28113 0.17683,0 2.50106,-1.52726 5.16496,-3.3939 z M 255.8873,402.36405 c 2.37713,-2.96642 3.59316,-3.98637 5.00246,-4.19583 1.02405,-0.15221 3.56446,-0.4958 5.64536,-0.76355 l 3.78345,-0.48681 -2.96291,-4.61309 -2.96291,-4.61309 1.09423,-5.35497 c 0.60183,-2.94523 1.03189,-5.4173 0.9557,-5.49349 -0.0762,-0.0762 -2.49138,0.48977 -5.36709,1.25769 l -5.22857,1.39621 -4.6042,-2.66857 c -2.53232,-1.46771 -4.74641,-2.52638 -4.9202,-2.35258 -0.1738,0.17379 -0.46189,2.65461 -0.64022,5.51293 l -0.32422,5.19694 -3.84064,3.37189 c -2.11236,1.85455 -3.84065,3.59051 -3.84065,3.85771 0,0.26719 2.10719,1.27906 4.68264,2.24861 l 4.68264,1.76281 2.3929,4.92814 c 1.3161,2.71047 2.59963,4.92814 2.85229,4.92814 0.25266,0 1.87262,-1.76359 3.59994,-3.91909 z m 83.56447,-16.01989 c 0.88511,-3.82164 2.42571,-10.38412 3.42355,-14.58328 l 1.81427,-7.63484 14.48368,-5.62 c 11.23807,-4.36062 14.3108,-5.77688 13.71218,-6.32009 -0.54258,-0.49237 -24.52092,-15.11938 -25.64364,-15.64286 -0.0547,-0.0255 -0.5087,-6.93522 -1.00886,-15.35492 -0.50017,-8.41969 -1.01388,-15.41301 -1.14157,-15.54071 -0.1277,-0.12769 -5.47887,4.28612 -11.89151,9.80846 l -11.65933,10.04062 -14.89336,-3.92322 c -8.19135,-2.15777 -14.99413,-3.84166 -15.11728,-3.74198 -0.12316,0.0997 2.39187,6.42349 5.58895,14.0529 3.19709,7.6294 5.81288,14.15468 5.81288,14.50061 0,0.34593 -3.69499,6.3724 -8.21109,13.39216 -4.5161,7.01977 -8.11871,12.84836 -8.00581,12.95244 0.11291,0.10407 6.18699,-0.31714 13.49795,-0.93604 7.31096,-0.61889 14.26278,-1.13279 15.44848,-1.142 2.07503,-0.0161 2.51573,0.42458 11.75869,11.7586 5.28157,6.47644 9.78729,11.57447 10.01269,11.32896 0.22541,-0.24551 1.13402,-3.57318 2.01913,-7.39481 z m -87.92169,-96.09264 c 0.6774,-3.44316 0.89802,-3.78127 3.45937,-5.30156 5.04789,-2.99619 4.99321,-2.71027 0.98412,-5.14566 -3.53727,-2.14878 -3.6466,-2.29416 -4.40201,-5.85382 -0.42605,-2.00767 -0.9745,-3.77382 -1.21877,-3.92478 -0.24426,-0.15097 -1.67459,0.80862 -3.17851,2.13242 -2.6447,2.32796 -2.87637,2.40691 -7.06293,2.40691 -4.86253,0 -4.7599,-0.21006 -2.43479,4.98325 1.054,2.35417 1.0477,2.45529 -0.37003,5.94436 -0.79326,1.9522 -1.44228,3.72734 -1.44228,3.94475 0,0.21742 1.84304,0.26343 4.09563,0.10226 l 4.09563,-0.29304 2.95562,2.60081 c 1.62559,1.43045 3.14458,2.48404 3.37551,2.34131 0.23094,-0.14273 0.74548,-1.91447 1.14344,-3.93721 z m 97.87387,-34.92868 3.97944,-3.53269 5.02812,1.17317 c 2.76547,0.64525 5.14453,1.05676 5.28681,0.91448 0.14228,-0.14228 -0.67837,-2.41122 -1.82367,-5.04207 -1.80398,-4.1439 -1.97706,-4.94494 -1.29461,-5.99181 2.83444,-4.34801 4.68338,-7.65613 4.42404,-7.91548 -0.16628,-0.16628 -2.57707,-0.0551 -5.3573,0.24701 l -5.05496,0.54935 -1.81185,-2.18045 c -0.99652,-1.19925 -2.65766,-3.11318 -3.69142,-4.25319 l -1.87955,-2.07274 -1.02711,4.7917 c -0.56492,2.63543 -1.12295,5.09134 -1.24008,5.45757 -0.11713,0.36623 -2.40981,1.55143 -5.09486,2.63377 -2.68504,1.08234 -4.75313,2.17625 -4.59575,2.4309 0.15738,0.25465 2.15851,1.57535 4.44695,2.93488 4.62649,2.74855 4.92418,3.34333 4.92418,9.83855 0,1.95235 0.18049,3.54974 0.40108,3.54974 0.2206,0 2.19184,-1.58971 4.38054,-3.53269 z m -71.17882,-11.62927 12.04136,-10.32826 15.17331,4.00512 c 8.34532,2.20282 15.28642,3.89202 15.42467,3.75376 0.20511,-0.2051 -3.51435,-9.41735 -10.92886,-27.06831 l -0.92529,-2.20273 8.44073,-13.10214 c 4.64239,-7.20618 8.44072,-13.3454 8.44072,-13.64271 0,-0.29732 -0.74771,-0.41766 -1.66158,-0.26742 -0.91387,0.15023 -7.23544,0.69346 -14.04792,1.20716 -6.81248,0.51371 -13.12471,1.05507 -14.02718,1.20302 -1.50287,0.24638 -2.49084,-0.77105 -11.74979,-12.1002 -5.55993,-6.80305 -10.28136,-12.16432 -10.49207,-11.91392 -0.21071,0.2504 -1.94133,7.11671 -3.84582,15.25846 -1.90449,8.14175 -3.6499,14.97204 -3.8787,15.17843 -0.22879,0.20638 -6.55843,2.74666 -14.06586,5.64505 -13.68406,5.28301 -15.56164,6.09919 -15.03267,6.53461 0.15653,0.12884 6.29195,3.86347 13.63425,8.29917 l 13.34965,8.0649 0.78642,15.90214 c 0.43253,8.74618 0.9072,15.90214 1.05484,15.90214 0.14764,0 5.68704,-4.64772 12.30979,-10.32827 z m -87.21775,-44.80603 c 0.95318,-1.56814 1.25751,-1.66158 5.4113,-1.66158 2.42071,0 4.40131,-0.17922 4.40131,-0.39826 0,-0.21904 -1.09928,-1.85424 -2.44284,-3.63377 l -2.44285,-3.23552 1.21249,-4.04151 c 0.66686,-2.22283 1.13919,-4.1148 1.04961,-4.20438 -0.0896,-0.0896 -1.95017,0.41822 -4.13465,1.12845 l -3.97178,1.29132 -3.54711,-2.51892 -3.54711,-2.51891 -0.17647,4.53387 -0.17646,4.53388 -3.44482,2.54484 -3.44481,2.54483 4.22549,1.31049 4.22549,1.3105 1.05769,3.24444 c 1.76945,5.42778 1.59386,5.25221 3.24493,3.24444 0.81983,-0.99695 1.9451,-2.56034 2.50059,-3.47421 z M 367.05489,57.088594 c 2.0501,-3.729128 2.86053,-4.246752 6.67122,-4.260937 4.29061,-0.01597 4.42681,-0.43434 1.32384,-4.066415 l -2.83138,-3.314164 0.77436,-3.89578 c 0.42589,-2.142678 0.64007,-4.03006 0.47595,-4.194181 -0.16412,-0.164121 -1.86145,0.392854 -3.77186,1.237722 -1.91039,0.844869 -3.73373,1.536125 -4.05186,1.536125 -0.31813,0 -2.21126,-0.956985 -4.20696,-2.126634 l -3.62855,-2.126634 0.43347,4.625783 0.43347,4.625783 -3.25081,2.886553 c -3.57032,3.170264 -3.65886,2.993301 2.15086,4.299051 l 3.58903,0.806646 1.54677,3.773086 c 0.85071,2.075198 1.73228,3.774543 1.95902,3.776322 0.22674,0.0018 1.29928,-1.610267 2.38343,-3.582326 z"
       id="path3714"
       inkscape:connector-curvature="0" />
    <path
       style="fill:#222;fill-opacity:1;stroke:#ff0000;stroke-width:1.05737019;stroke-miterlimit:4;stroke-dasharray:none;stroke-opacity:0"
       d="m 66.300765,412.77841 c 5.282316,-12.34313 15.110536,-34.05476 15.534093,-34.31653 0.785096,-0.48521 29.135152,-3.77477 30.286402,-3.51423 0.72736,0.1646 20.64924,22.33856 34.80279,38.73708 0.86794,1.0056 -1.10387,1.05737 -40.27552,1.05737 H 65.460394 Z"
       id="path3716"
       inkscape:connector-curvature="0" />
    <path
       style="fill:#222;fill-opacity:1;stroke:#ff0000;stroke-width:1.05737019;stroke-miterlimit:4;stroke-dasharray:none;stroke-opacity:0"
       d="M 46.443948,511.03516 C 26.525782,510.79107 12.459351,510.3796 11.332847,510.00807 6.2924327,508.34575 3.5235914,505.81388 2.3223046,501.76871 1.6118098,499.37622 1.4301911,494.57068 1.4301911,478.16386 v -20.60079 l 4.093591,-4.06222 4.0935909,-4.06222 H 158.08719 c 118.37395,0 148.46947,0.15309 148.46811,0.75526 -10e-4,0.4154 -3.95388,3.17826 -8.78433,6.13969 -4.83046,2.96143 -8.56825,5.58253 -8.30621,5.82466 0.26203,0.24213 4.60212,1.99786 9.64465,3.90161 l 9.16821,3.46138 2.30264,9.33634 c 2.21266,8.97153 2.89081,11.0579 3.39385,10.44152 0.12775,-0.15654 3.0354,-3.78493 6.46145,-8.0631 l 6.22917,-7.77849 3.69195,0.36311 c 7.55195,0.74275 16.68249,1.15961 16.68249,0.76164 0,-0.22618 -1.85112,-3.1891 -4.11359,-6.58426 -2.26247,-3.39517 -4.71755,-7.16973 -5.45573,-8.38793 l -1.34214,-2.21491 1.60401,-4.00675 1.60402,-4.00676 80.43552,0.17955 80.43553,0.17954 2.84345,1.40052 c 3.91044,1.92606 6.25676,4.77888 7.07734,8.60511 1.02487,4.77878 1.46448,24.01931 0.75572,33.07518 -0.73702,9.41687 -1.83889,12.35813 -5.60827,14.97031 -1.34305,0.93073 -3.84851,1.93114 -5.56771,2.22313 -2.51009,0.42631 -311.40631,1.71475 -312.06383,1.30165 -0.10228,-0.0642 0.65075,-1.47665 1.67339,-3.13866 2.19644,-3.56966 2.02986,-3.52301 14.67522,-4.1095 4.90166,-0.22733 8.91212,-0.58644 8.91212,-0.79802 0,-0.21157 -3.15544,-4.00656 -7.01209,-8.43331 l -7.0121,-8.04862 2.73386,-10.51809 c 1.50361,-5.78495 2.5164,-10.51809 2.25062,-10.51809 -0.26578,0 -4.6474,1.76732 -9.73694,3.92737 -5.08954,2.16006 -9.5634,3.92738 -9.94191,3.92738 -0.3785,0 -4.47167,-2.44113 -9.09591,-5.42474 -4.62424,-2.9836 -8.69282,-5.43065 -9.04129,-5.4379 -0.43583,-0.009 -0.3973,2.57971 0.12345,8.29474 1.30763,14.35059 2.04133,12.28906 -7.03108,19.75556 -4.31382,3.55023 -7.98424,6.683 -8.15649,6.9617 -0.17224,0.2787 3.96901,1.50562 9.20279,2.72648 5.23378,1.22087 9.96706,2.34516 10.51841,2.49842 0.78426,0.21801 4.13335,7.0204 4.13335,8.39531 0,0.39763 -86.952141,0.16636 -128.394942,-0.3415 z m 406.889682,-7.74457 4.34898,-7.17339 2.76692,-0.37925 c 1.5218,-0.20859 4.42831,-0.39492 6.4589,-0.41407 2.0306,-0.0191 4.72671,-0.22307 5.99136,-0.45316 l 2.29936,-0.41834 -5.47147,-6.34158 c -3.00931,-3.48787 -5.4679,-6.75061 -5.46353,-7.25054 0.004,-0.49992 0.9357,-4.37562 2.06962,-8.61265 1.13393,-4.23703 1.98014,-7.7037 1.88048,-7.7037 -0.0997,0 -3.76198,1.48627 -8.13848,3.30281 l -7.95728,3.3028 -7.02571,-4.51122 c -3.86414,-2.48118 -7.26912,-4.51123 -7.56662,-4.51123 -0.2975,0 -0.40606,0.47581 -0.24125,1.05737 0.16481,0.58155 0.47445,3.91227 0.68809,7.40159 0.21365,3.48932 0.51743,6.80159 0.67509,7.3606 0.20383,0.72275 -1.65027,2.61949 -6.41787,6.56549 -3.68748,3.05202 -6.56539,5.68824 -6.39535,5.85828 0.17004,0.17004 3.9088,1.16209 8.30834,2.20455 l 7.99919,1.89537 2.56468,6.33525 c 1.41057,3.48439 2.83739,7.08297 3.17072,7.99684 0.33333,0.91387 0.71872,1.66158 0.85645,1.66158 0.13771,0 2.20744,-3.22803 4.59938,-7.1734 z m -201.56052,-9.11927 1.81644,-0.63322 -1.31,-1.39443 c -0.7205,-0.76694 -1.31417,-1.92071 -1.31926,-2.56392 -0.005,-0.64322 -0.24739,-1.54549 -0.53845,-2.00506 -0.44592,-0.70408 -0.73804,-0.68932 -1.85605,0.0938 -0.99539,0.6972 -1.80322,0.79273 -3.23388,0.38242 -1.04887,-0.30081 -1.98912,-0.54693 -2.08945,-0.54693 -0.10033,0 -0.009,0.92317 0.20244,2.05148 0.26517,1.41352 0.0791,2.51821 -0.59852,3.55231 -0.90511,1.38137 -0.90558,1.53067 -0.006,1.87589 0.53766,0.20629 1.39195,0.37507 1.89849,0.37507 0.50655,0 1.4876,0.72032 2.18011,1.6007 l 1.25911,1.6007 0.8893,-1.87778 c 0.52953,-1.11811 1.62416,-2.13395 2.70576,-2.511 z m -147.3752,-2.06728 c 1.82278,-3.99983 2.27588,-4.5428 4.36528,-5.23116 1.28227,-0.42245 3.27256,-1.16069 4.42287,-1.64054 l 2.09148,-0.87245 -3.58625,-3.18202 -3.58624,-3.18202 -0.23286,-4.61123 c -0.12807,-2.53617 -0.38093,-4.61123 -0.56191,-4.61123 -0.18098,0 -2.09093,0.9853 -4.24432,2.18955 l -3.915283,2.18955 -4.450694,-1.22619 c -5.132263,-1.41396 -4.976238,-1.60723 -3.544365,4.39062 l 0.863285,3.61615 -2.478035,3.80345 c -1.362926,2.09189 -2.327591,3.95389 -2.143706,4.13777 0.183886,0.18389 2.296155,0.58068 4.693926,0.88175 2.480814,0.3115 4.650755,0.91984 5.035215,1.41161 0.37159,0.47531 1.627256,2.10123 2.790363,3.61315 1.163104,1.51193 2.189574,2.75737 2.281054,2.76764 0.0915,0.0103 1.08155,-1.9897 2.20019,-4.4444 z m -61.9843,-4.60601 c 2.19083,-3.45786 4.255522,-6.06903 4.833692,-6.11306 0.555105,-0.0423 3.951406,-0.2462 7.547339,-0.45316 l 6.538057,-0.37629 -4.7855,-5.77387 -4.785501,-5.77386 1.926883,-6.91458 c 1.059785,-3.80302 1.753911,-6.98676 1.542501,-7.075 -0.211411,-0.0882 -3.067678,0.93138 -6.347262,2.2658 -3.279584,1.33442 -6.331819,2.42621 -6.782746,2.42621 -0.450927,0 -3.464782,-1.77103 -6.697457,-3.93562 -3.574048,-2.39318 -5.940038,-3.63639 -6.036928,-3.17211 -0.08764,0.41993 0.05241,3.7965 0.311227,7.50349 l 0.470567,6.73998 -5.598079,4.35999 c -3.078943,2.39799 -5.598078,4.53641 -5.598078,4.75203 0,0.21563 3.166269,1.20233 7.036153,2.19269 l 7.036152,1.80064 2.480179,6.79456 c 1.364098,3.737 2.616126,6.79316 2.782284,6.79146 0.166158,-0.002 2.023091,-2.71939 4.126517,-6.0393 z m 336.19149,0.93065 3.8138,-2.09632 4.11725,1.2352 c 2.2645,0.67937 4.23687,1.1156 4.38305,0.96942 0.14618,-0.14618 -0.0499,-2.1775 -0.4358,-4.51404 l -0.70158,-4.24825 2.50969,-3.50474 c 2.8718,-4.01041 2.80181,-4.13348 -2.70579,-4.75812 -3.62584,-0.41122 -3.7118,-0.46517 -6.34423,-3.98174 -1.46772,-1.96068 -2.80453,-3.55972 -2.97069,-3.55343 -0.16615,0.006 -1.14024,1.83584 -2.16463,4.06566 l -1.86253,4.05424 -4.4047,1.41817 -4.40469,1.41817 3.39722,3.43304 3.39722,3.43304 v 4.36302 c 0,2.39965 0.12659,4.36301 0.28131,4.36301 0.15471,0 1.99751,-0.94335 4.0951,-2.09633 z"
       id="path3718"
       inkscape:connector-curvature="0" />
  </g>
</svg>
